<svg width="478" height="478" viewBox="0 0 478 478" fill="none" xmlns="http://www.w3.org/2000/svg">
<path d="M392.533 0H85.333C38.228 0.056 0.056 38.228 0 85.333V392.533C0.056 439.638 38.228 477.81 85.333 477.866H392.533C439.638 477.81 477.81 439.638 477.866 392.533V85.333C477.81 38.228 439.638 0.056 392.533 0ZM324.267 256H256V324.267C256 333.693 248.359 341.334 238.933 341.334C229.507 341.334 221.866 333.693 221.866 324.267V256H153.6C144.174 256 136.533 248.359 136.533 238.933C136.533 229.507 144.174 221.866 153.6 221.866H221.867V153.6C221.867 144.174 229.508 136.533 238.934 136.533C248.36 136.533 256 144.174 256 153.6V221.867H324.267C333.693 221.867 341.334 229.508 341.334 238.934C341.334 248.36 333.692 256 324.267 256Z" fill="white"/>
</svg>
