<svg width="478" height="478" viewBox="0 0 478 478" fill="none" xmlns="http://www.w3.org/2000/svg">
<path d="M392.533 0H85.333C38.228 0.056 0.056 38.228 0 85.333V392.533C0.056 439.638 38.228 477.81 85.333 477.866H392.533C439.638 477.81 477.81 439.638 477.866 392.533V85.333C477.81 38.228 439.638 0.056 392.533 0Z" fill="white"/>
<path d="M323.212 348.162L323.213 348.163C325.895 350.953 329.519 352.5 333.388 352.5C337.051 352.5 340.536 351.098 343.175 348.553C348.783 343.147 348.963 334.188 343.565 328.565L341.761 330.296L343.565 328.565L292.593 275.46C305.565 259.226 312.651 239.124 312.651 218.229C312.651 167.652 271.576 126.5 221.076 126.5C170.575 126.5 129.5 167.652 129.5 218.229C129.5 268.805 170.575 309.957 221.076 309.957C239.308 309.957 256.727 304.655 271.774 294.573L323.212 348.162ZM221.076 154.777C255.995 154.777 284.414 183.239 284.414 218.229C284.414 253.218 255.995 281.68 221.076 281.68C186.156 281.68 157.737 253.218 157.737 218.229C157.737 183.239 186.156 154.777 221.076 154.777Z" fill="#00A8EC" stroke="#00A8EC" stroke-width="5"/>
</svg>
