<svg width="213" height="221" viewBox="0 0 213 221" fill="none" xmlns="http://www.w3.org/2000/svg">
<path d="M209.761 201.296L157.253 146.591C170.754 130.514 178.151 110.287 178.151 89.2287C178.151 40.0287 138.191 0 89.0756 0C39.9601 0 0 40.0287 0 89.2287C0 138.429 39.9601 178.457 89.0756 178.457C107.514 178.457 125.085 172.886 140.108 162.311L193.015 217.431C195.227 219.731 198.201 221 201.388 221C204.405 221 207.267 219.848 209.44 217.753C214.056 213.303 214.204 205.924 209.761 201.296ZM89.0756 23.277C125.38 23.277 154.914 52.8622 154.914 89.2287C154.914 125.595 125.38 155.18 89.0756 155.18C52.7715 155.18 23.2371 125.595 23.2371 89.2287C23.2371 52.8622 52.7715 23.277 89.0756 23.277Z" fill="white"/>
</svg>
